<svg width="60" height="23" viewBox="0 0 60 23" fill="none" xmlns="http://www.w3.org/2000/svg">
<g clip-path="url(#clip0_226_516)">
<path d="M11 19.5C15.4183 19.5 19 15.9183 19 11.5C19 7.08172 15.4183 3.5 11 3.5C6.58172 3.5 3 7.08172 3 11.5C3 15.9183 6.58172 19.5 11 19.5Z" fill="#D80027"/>
<path d="M11 7.67392L11.8634 10.3311H14.6573L12.397 11.9733L13.2603 14.6305L11 12.9882L8.73971 14.6305L9.60309 11.9733L7.34277 10.3311H10.1366L11 7.67392Z" fill="#FFDA44"/>
</g>
<path d="M32.808 16L36.824 4.8H35.208L31.976 14.144L28.728 4.8H27.128L31.128 16H32.808ZM45.0975 13.152L39.3375 4.8H38.1375V16H39.6255V7.632L45.3855 16H46.5855V4.8H45.0975V13.152ZM48.9813 4.8V16H53.3493C54.8693 16 56.1333 15.456 57.1413 14.384C58.1493 13.296 58.6613 11.968 58.6613 10.4C58.6613 8.832 58.1493 7.504 57.1413 6.432C56.1333 5.344 54.8693 4.8 53.3493 4.8H48.9813ZM50.4693 14.592V6.208H53.3493C54.4853 6.208 55.4293 6.608 56.1493 7.408C56.8693 8.208 57.2373 9.2 57.2373 10.4C57.2373 11.6 56.8693 12.592 56.1493 13.392C55.4293 14.192 54.4853 14.592 53.3493 14.592H50.4693Z" fill="#002A48"/>
<defs>
<clipPath id="clip0_226_516">
<rect width="16" height="16" fill="white" transform="translate(3 3.5)"/>
</clipPath>
</defs>
</svg>
